<?xml version="1.0" encoding="UTF-8"?>
<svg xmlns="http://www.w3.org/2000/svg" version="1.1" xmlns:xlink="http://www.w3.org/1999/xlink" viewBox="0 0 730 300">
  <!-- Generator: Adobe Illustrator 29.8.3, SVG Export Plug-In . SVG Version: 2.1.1 Build 3)  -->
  <defs>
    <style>
      .st0 {
        letter-spacing: -.2em;
      }

      .st0, .st1 {
        font-size: 120.2px;
      }

      .st2, .st3 {
        fill: #fd0;
      }

      .st3 {
        font-family: NotoSansCJKtc-Bold-B5pc-H, 'Noto Sans CJK TC';
        font-weight: 700;
      }

      .st4, .st5 {
        font-family: NotoSansCJKtc-Black-B5pc-H, 'Noto Sans CJK TC';
        font-weight: 800;
      }

      .st4, .st5, .st6 {
        fill: #f9fafa;
      }

      .st7 {
        mask: url(#mask);
      }

      .st8 {
        font-size: 96.7px;
      }

      .st9 {
        fill: none;
      }

      .st10 {
        clip-path: url(#clippath-1);
      }

      .st11 {
        isolation: isolate;
      }

      .st12 {
        mix-blend-mode: multiply;
      }

      .st13 {
        font-size: 31.1px;
        letter-spacing: 0em;
      }

      .st5 {
        font-size: 83.2px;
      }

      .st14 {
        font-size: 38.9px;
        letter-spacing: 0em;
      }

      .st15 {
        letter-spacing: 0em;
      }

      .st16 {
        clip-path: url(#clippath-2);
      }

      .st17 {
        mix-blend-mode: hard-light;
        opacity: .6;
      }

      .st18 {
        clip-path: url(#clippath);
      }

      .st19 {
        fill: #ecede5;
      }

      .st20 {
        opacity: .5;
      }
    </style>
    <clipPath id="clippath">
      <rect class="st9" x="-1340.6" y="392.4" width="695.1" height="695.1"/>
    </clipPath>
    <mask id="mask" x="-1340.6" y="392.4" width="695.1" height="695.1" maskUnits="userSpaceOnUse">
      <g id="_背景_拷貝不透明度遮色片" data-name="背景_拷貝不透明度遮色片">
        <image id="_背景_拷貝不透明度遮色片1" data-name="背景_拷貝不透明度遮色片" width="2048" height="2048" transform="translate(-1340.6 392.4) scale(.3)" xlink:href="layer-title-1.png"/>
      </g>
    </mask>
    <clipPath id="clippath-1">
      <rect class="st9" x="-1340.6" y="392.4" width="695.1" height="695.1"/>
    </clipPath>
    <clipPath id="clippath-2">
      <rect class="st9" x="-2280.4" y="1415.6" width="1336.8" height="1336.8"/>
    </clipPath>
  </defs>
  <g class="st11">
    <g id="_圖層_2" data-name="圖層_2">
      <rect class="st9" y="1184.1" width="1920" height="1080"/>
      <rect class="st19" x="207.5" y="2240.7" width="1920" height="1080"/>
    </g>
    <g id="_圖層_1" data-name="圖層_1">
      <g>
        <g id="_肝臟公仔全正面衝出螢幕.psd" data-name="肝臟公仔全正面衝出螢幕.psd" class="st12">
          <g class="st18">
            <g class="st7">
              <image id="_背景_拷貝" data-name="背景_拷貝" width="2048" height="2048" transform="translate(-1340.6 392.4) scale(.3)" xlink:href="layer-title-2.png"/>
            </g>
            <image id="_生成式填色_2" data-name="生成式填色_2" width="1572" height="1915" transform="translate(-1274.4 427.4) scale(.3)" xlink:href="layer-title-3.png"/>
          </g>
        </g>
        <g id="_肝臟公仔全正面衝出螢幕2.psd" data-name="肝臟公仔全正面衝出螢幕2.psd">
          <g class="st10">
            <image id="_圖層_4" data-name="圖層_4" class="st20" width="384" height="122" transform="translate(-997.1 1025.1) scale(.3)" xlink:href="layer-title-4.png"/>
            <image id="_圖層_3" data-name="圖層_3" width="1572" height="1835" transform="translate(-1274.4 427.4) scale(.3)" xlink:href="layer-title-5.png"/>
          </g>
        </g>
      </g>
      <g>
        <path class="st6" d="M125.9,146.5c-2.8,9.6-8.8,18.3-19.9,24.4,2.2.1,4.5.1,6.7.1,12.7,0,35.1-1.3,48.3-3.5-1.9,4.7-4.7,13.2-4.9,17.8-10.4.7-30.4,1.6-44.2,1.6s-25.4-1.3-33.9-6.1c-4.9-2.9-9.1-6.7-11.3-6.7s-6.6,8.5-9,15l-11.2-17.1c4.9-5.8,10.4-10,15-12,2.5-5.2,4.6-11.5,6.2-17.9h-15.7c2.5-6.7,5.4-15.7,8-24.6h-11v-15.5h30.5c-2.2,8.1-4.9,17.1-7.5,25.2h5.2l2.4-.7,7.1,3c-2.5,12.1-6.2,23.8-10.8,33.4,1.2.8,2.5,1.7,3.9,2.5,5.4,3.5,12.6,4.8,21,5.4-2.5-3.6-6.4-8.1-9.2-10.5,9.2-3.1,14.1-8.1,17-13.8h-20.6v-36h15.8v21h7.9v-25h-29.7v-15.1h15.5c-1.9-3.5-4.6-7.7-7.1-10.8l13.8-6.8c3.5,4.2,7.9,10,9.8,13.9l-7.2,3.7h18.3c2.9-5.2,6-11.9,7.7-17.2l18,4.2c-2.6,4.7-5.3,9.1-7.7,13h14.7v15.1h-29.6v25h8.5v-21.3h16.6v36.3h-27.3ZM61.8,100.3c-1.5-5.4-4.7-14.1-6.8-20.5l15.7-4.7c2.4,6.4,5.4,14.4,7.3,19.6l-16.1,5.6Z"/>
        <path class="st6" d="M264.7,150.6h12.8v12.6h-12.8v10.7c0,7.1-1.3,10.7-6.2,12.9-4.9,2-11.2,2.2-19.4,2.2-.5-3.6-2-8.1-3.4-11.8l-5.5,3.5c-1.6-4.2-5.5-10.5-9.5-14.8l4.5-2.6h-9.1v7.2h-17.3v17.9h-15.1v-17.9h-18v-15.1h18v-5.6h-14.1v-44.7h14.1v-5h-16.3v-14.9h16.3v-10.6h15.1v10.6h15.9v14.9h-15.9v5h15v44.7h-15v5.6h17.3v-4.7h33.1v-3.8h15.7v3.8ZM181.2,121.6h4.5v-4.8h-4.5v4.8ZM181.2,137.7h4.5v-4.9h-4.5v4.9ZM201.4,116.8h-4.8v4.8h4.8v-4.8ZM201.4,132.8h-4.8v4.9h4.8v-4.9ZM215.7,134.8c6.4,0,14.2-.1,22.8-.4v-4h-20.1v-32.9h20.1v-3.1h-21.7v-12.6h21.7v-7.6h14.5v7.6h22.7v12.6h-22.7v3.1h20.8v32.9h-3.4c3.2,4.4,6.1,9.5,7.8,13.2l-11.9,5.9c-.5-1.2-1.1-2.6-1.8-4.1-17.3.7-35,1.1-47.9,1.4l-.9-12.1ZM231.6,109.7h6.9v-3.1h-6.9v3.1ZM238.6,121.5v-3.2h-6.9v3.2h6.9ZM249.1,163.2h-13.2c2.7,3.2,5.1,6.8,6.4,9.7l-3.4,2.2c3.4.1,6.9.1,8,.1,1.6-.1,2.2-.5,2.2-1.8v-10.2ZM253.1,106.6v3.1h6.9v-3.1h-6.9ZM260,118.2h-6.9v3.2h6.9v-3.2ZM253.1,134.2h4.8c-.6-1-1.2-1.8-1.8-2.5l2.7-1.2h-5.8v3.7Z"/>
        <path class="st6" d="M330.4,169c0,7.5-.9,12.3-5.1,15.1-4.2,2.8-9.4,3.2-17,3.2-.5-4.6-2.4-12.4-4.5-16.8,3.5.2,7.7.2,9.1.2s1.8-.6,1.8-2v-22.6c-1.9,2.2-3.8,4.4-5.7,6.6l-4-7.8c-.9,15.5-3.3,32-8.5,43.7-2.9-2.5-9.9-6.5-13.8-7.9,7.1-16.3,7.5-40.6,7.5-58.3v-44.1h40v90.6ZM305.7,122.4c0,4.2,0,8.9-.2,13.8,2.8-2,6-4.7,9.3-7.5v-7.3l-3.7,3.2c-1.3-1.8-3.3-4.3-5.4-6.8v4.6ZM305.7,94.5v11.5l3.2-2.5c1.9,1.7,4,3.6,5.9,5.5v-14.5h-9.1ZM395.5,139.4h-22.5v48.9h-18v-48.9h-22.1v-17.9h22.1v-23.3h-19.9v-17.8h57.4v17.8h-19.4v23.3h22.5v17.9Z"/>
        <path class="st6" d="M484.5,169.8c9.7,0,11.3-1.8,12.7-12.5,4.1,2.5,11.4,5.2,16.4,6-2.7,17.7-8.4,22.7-27.7,22.7h-35.2c-23.7,0-30.4-4.9-30.4-23.8v-40.5c-1.9,1.9-3.8,3.7-5.7,5.3-2.9-3.5-9.9-10.3-13.9-13.3,12.6-9,24.4-24.3,30.7-40l17.7,5.4c-1.5,3.6-3.3,7.1-5.2,10.6h60.7s-.1,4.9-.2,7c-.9,36.6-2,51.1-5.3,55.9-2.7,4.1-5.5,5.4-9.2,6.2-3.3.7-8.2.8-13.7.7-.2-4.9-2-12-4.5-16.5,3.4.4,6.4.5,8.4.4,1.5.1,2.6-.4,3.7-1.9,1.6-2.4,2.5-11.5,3.1-35.3h-53.3c-1.5,2.3-3.3,4.4-4.9,6.5h43v40.5h-34.3v8.9c0,7,1.6,7.8,13.8,7.8h33.4ZM437.2,127.9v9.9h17.5v-9.9h-17.5Z"/>
        <path class="st6" d="M543.2,135.3c-5.2-3.6-16.1-9.5-23.3-13.5l9.2-13c6.8,3.2,18.1,8.5,23.7,11.9l-9.5,14.5ZM524.3,175.3c5.3-8.2,12.6-21.3,18.6-34l13.2,11.2c-5.1,11.4-10.8,23.1-16.8,34l-15-11.2ZM549.9,102.6c-5.1-3.7-16-10-23.2-14.2l9.7-12.7c6.9,3.5,18.1,9.1,23.7,12.7l-10.1,14.2ZM627.4,99v87.7h-16.7v-6.4h-37.3v7.2h-16v-88.6h26.3v-24.2h16.7v24.2h27.1ZM573.4,115.7v15.4h10.2v-15.4h-10.2ZM573.4,163.7h10.2v-15.9h-10.2v15.9ZM600.3,115.7v15.4h10.4v-15.4h-10.4ZM610.7,163.7v-15.9h-10.4v15.9h10.4Z"/>
        <path class="st6" d="M655.4,165.2c0-7.5,5.9-13.2,13.9-13.2s13.9,5.8,13.9,13.2-5.9,13.2-13.9,13.2-13.9-5.5-13.9-13.2ZM657.2,107.1l-.7-19.9h25.8l-.7,19.9-4.8,38h-14.7l-4.8-38Z"/>
      </g>
      <g>
        <path class="st6" d="M217.2,242.5c4.6,4.2,10.7,7.7,17.4,9.7-2.6,2.2-6,6.6-7.7,9.5-3.1-1.2-6-2.8-8.7-4.7v14.7c1.9-1.2,3.6-2.5,5-3.6l7.7,6.1c-2.8,1.5-5.7,3-8.6,4.3,3.2.9,6.1,1.8,8.4,2.7l-5.1,8c-7.3-2.8-22-7.3-32.8-10.1.2,1.6.3,3.2.5,4.2-19.6,3.7-22.8,4.5-24.9,5.7-.7-2.7-3.1-7.6-4.9-9.5,2-1.2,4-3.6,4-7.7v-12.2c-1.8,1.2-3.7,2.2-5.6,3.2-1.7-2.3-5.7-6.7-8.2-8.7,6.7-2.7,12.9-6.7,17.3-11.6h-13.7v-7.8h30.4v-2h-22.8v-6.9h22.8v-1.9h-26.4v-7.7h12.1c-.6-1.2-1.3-2.4-1.9-3.4l10.8-3.2c1.5,2,3.2,4.7,4.2,6.7h16c1.1-2.2,2.3-4.8,2.9-6.8l13.5,2.4c-1.2,1.7-2.4,3.1-3.5,4.4h11.5v7.7h-26.7v1.9h23.2v6.9h-23.2v2h30.9v7.8h-14.1ZM211.8,251.8c-1.8-1.7-3.6-3.7-5.2-5.7v3.6h-24.4v-3.2c-1.5,1.8-3.1,3.7-4.7,5.3h34.3ZM180.9,259.7h25v-1.7h-25v1.7ZM180.9,266.6h25v-1.7h-25v1.7ZM192.8,274.5c0,.8,0,1.7,0,2.7l3.2-4.5h-15.1v3.6l11.8-1.8ZM185,242.5c-.3.6-.7,1.2-1.2,1.7h21.4c-.4-.6-.8-1.2-1.2-1.7h-19.1ZM200.9,272.8c3.4.8,7.2,1.8,10.9,2.8,1.6-.9,3.2-1.8,4.7-2.8h-15.6Z"/>
        <path class="st6" d="M272.1,232.5h-31.9v-9.4h13c-1.2-3.1-3-6.7-4.5-9.7l9-4.4c2.2,3.6,4.6,8.2,5.8,11.4l-4.8,2.7h13.4v9.4ZM316.7,265c-2.5,4.8-6.1,8.7-10.3,11.9,4.1,1,8.7,1.7,13.7,2-2.3,2.2-5.2,6.7-6.6,9.5-7.2-.9-13.6-2.6-18.9-5.1-6.2,2.5-13.1,4.2-20.5,5.3-.8-2.4-2.6-6-4.2-8.4v3.8h-16.5v3.3h-9.8v-29.2h26.3v21c5.2-.5,10.1-1.4,14.6-2.6-1.8-1.7-3.5-3.5-4.9-5.5l3.4-1h-8.9v-7.9h33.9l1.8-.4,6.9,3.2ZM282.3,221.8h-10.3v-8.8h10.3v-3.4h10.5v15.7h-8.5l3.3,1c-.3.9-.7,1.7-1.1,2.7h5.4c-.3-1.1-.7-2.1-.9-3l6.7-1.7v-14.7h10.6v3.2h10v8.8h-10v3.7h-6c.5,1.2.8,2.5,1.2,3.7h12.6v7h-13.1v2h10.9v5.7h-10.9v2h10.9v5.7h-10.9v2.2h14.7v6.7h-31.9v.9h-9.8v-15.2c-.7.8-1.4,1.6-2.1,2.2-.9-1.7-3.2-5.4-4.9-7.8v3.7h-25.4v-9h25.4v3.2c3.7-3.8,7.1-9.2,9-14.7l4.1,1.2v-2.9ZM243.9,246.5h25.4v9h-25.4v-9ZM259.9,267.7h-6.5v6.8h6.5v-6.8ZM293.3,235.9h-7.2v2h7.2v-2ZM293.3,243.6h-7.2v2h7.2v-2ZM293.3,251.2h-7.2v2.2h7.2v-2.2ZM291.1,270.1c1.2,1,2.4,1.8,3.8,2.7,1.7-.8,3.2-1.7,4.6-2.7h-8.4Z"/>
        <path class="st6" d="M371.2,275.9h29.8v10.7h-71.2v-10.7h28.6v-8h-20.5v-10.4h20.5v-7.7h-16.2v-7.3c-3.4,2.2-6.9,4.2-10.2,5.7-1.7-3-4.7-7.2-7.4-9.8,8.6-3.2,17.7-8.7,25.1-15.1h-8.7v-11.1h30.4c6.8,10,19.7,20,34.4,25.1-2.5,2.6-6.3,7.7-8.1,11.1-3.6-1.7-7-3.6-10.3-5.7v7h-16.3v7.7h20.7v10.4h-20.7v8ZM364.8,223.4c-5,5.7-11.3,11.1-18,15.9h35.4c-6.7-4.8-12.5-10.4-17.3-15.9h0Z"/>
        <path class="st6" d="M445.9,266.8c-11.2,3.2-23.4,6.4-32.8,8.9l-2.8-12.6c3.2-.6,7.1-1.3,11.3-2.2v-30.4h-9.7v-11.6h31.9v11.6h-10.1v27.9c3.7-.8,7.4-1.6,11.1-2.4l1.2,10.7ZM483.9,235.4c-2.5,12.1-6.2,22-11.7,29.9,5,5.3,11.1,9.5,19,12.2-2.7,2.5-6.5,7.6-8.3,11-7.9-3.2-14.1-7.7-19.2-13.4-6.3,5.7-14.1,10.1-23.7,13.4-1-2.9-4.3-8.5-6.4-11.2,9.6-2.7,17.1-6.7,23-12.1-2.7-4.9-5-10.4-6.9-16.3-.9,1.3-1.8,2.7-2.8,3.9-2.2-2-7.4-5.7-10.3-7.2,7.6-8.2,13.2-22.2,16.2-36.4l12,2.4c-1,4.2-2.2,8.2-3.5,12.2h28.4v11.6h-5.6ZM457.7,235.4c1.6,7.1,3.8,13.6,6.9,19.2,3-5.4,5.2-11.8,6.7-19.2h-13.6Z"/>
        <path class="st6" d="M575.4,221.9c-3.1,7.9-7.7,14.6-13.4,20.2,4.2,2.2,9,3.7,14.2,4.7-1.1,3.1-2.2,8.8-2.4,12.2-1-.2-2-.6-3-.9v29.4h-11v-4.2h-14.3v4.6h-10.5v-29.6c-1.2.4-2.4.8-3.7,1.2-.4-1.8-1.2-4.6-2.2-7.1v21.4h-21.4v5.2h-8.9v-64.1h30.3v15.3c6-5.2,11.3-12.9,14.4-21l10.1,3c-.7,1.9-1.6,3.8-2.5,5.7h15.3l2.1-.3,6.8,4.2ZM507.8,225.4v14.2h3v-14.2h-3ZM507.8,263.6h3v-15.3h-3v15.3ZM520.7,225.4h-2.8v14.2h2.8v-14.2ZM520.7,263.6v-15.3h-2.8v15.3h2.8ZM529.2,247.5c5.3-1.4,10.3-3.3,14.8-5.7-1.7-1.8-3.2-3.8-4.7-5.9-1.7,1.9-3.5,3.7-5.3,5.2-.9-1.7-3-5.1-4.8-7.6v14ZM563.8,255.6c-4-1.7-7.6-3.7-10.9-6.1-3.4,2.3-7.2,4.3-11,6.1h21.9ZM559.8,272.9v-6.8h-14.3v6.8h14.3ZM547.1,228.9c1.6,2.5,3.5,4.8,5.7,6.9,2.5-2.1,4.7-4.4,6.6-6.9h-12.3Z"/>
      </g>
      <g>
        <path class="st2" d="M162.9,26.4c-.4,5.8-1.3,10.5-2.8,14.1,3.2,2.9,7.4,3.6,12.1,3.6,1.4,0,6.3,0,8,0-.5.9-1.1,2.7-1.3,3.8h-7c-5.3,0-9.9-.9-13.4-3.9-1.2,1.9-2.6,3.4-4.2,4.6-.6-.8-2-2.2-2.9-2.7v2.7h-4v-19.6c-.6.9-1.2,1.7-1.8,2.5-.3-1.1-1.4-3.8-2.1-5,2.7-3.5,5.1-8.8,6.5-14.1l4.1,1.2-.4,1.2h8.8c-1.2,3.6-2.7,7.9-4,11.4h2c0,0,2.3.4,2.3.4ZM151.3,45.7c1.8-1.2,3.3-2.7,4.5-4.8-1.3-1.9-2.4-4.2-3.2-7.1l3.2-1.2c.5,1.7,1,3.1,1.7,4.4.7-2.1,1.1-4.6,1.4-7.4h-5.8c1.3-2.9,2.8-7,4-10.9h-3.5v-3.7c-.6,2.1-1.4,4.2-2.3,6.3v24.6ZM168.2,18.4h-4.2v-3.3h4.2v-2.9h3.8v2.9h5.6v5.1h2.2v3.3h-2.2v5.2h-5.6v1.8h6v3.6h-6v1.9h7.1v3.6h-7.1v3.5h-3.8v-3.5h-5.4v-3.6h5.4v-1.9h-4.6v-3.6h4.6v-1.8h-4.2v-3.3h4.2v-1.9h-5.9v-3.3h5.9v-1.8ZM172,18.4v1.8h2.1v-1.8h-2.1ZM174.1,23.6h-2.1v1.9h2.1v-1.9Z"/>
        <path class="st2" d="M216.5,34.5h-1.4l3.1,2.5c-1.8,1.2-3.8,2.4-5.5,3.3,2.6,1.2,5.3,2.4,7,3.3l-2.1,3.2c-2.4-1.4-6.7-3.5-10.5-5.2v2.5c0,2.3-.6,3.3-2.1,3.9-1.6.6-3.8.6-7,.6-.2-1.1-.9-2.7-1.4-3.8,1.9,0,4.3,0,5,0,.7,0,.9-.2.9-.9v-2.5c-3.6,1.6-7.3,3.3-10.3,4.7l-1.7-3.8c1.8-.6,4.2-1.5,6.9-2.5-1.3-1-3.5-2.5-5.2-3.5l1.9-1.9h-.9v-3.1h9.3v-2.1h-10.4v-3.2h10.4v-2h-8.8v-3.1h8.8v-1.6h-11.1v7.2c0,6.3-.6,15.9-4,21.9-.8-.8-2.8-2.1-3.8-2.5,3.2-5.6,3.4-13.7,3.4-19.4v-11.2h14.7c-.4-.8-.8-1.6-1.2-2.3l4.6-1.1c.7,1.1,1.4,2.3,1.9,3.4h12.7v4h-12.5v1.6h9.5v4.7h3.4v3.9h-3.4v4.9ZM202.3,38v-3.5h-6.8c1.6.9,3.5,2.1,4.6,2.9l-2.1,2.3,4.3-1.7ZM207,26h5.1v-2h-5.1v2ZM207,31.3h5.1v-2.1h-5.1v2.1ZM208.6,38.6c1.9-1.1,4.2-2.8,5.8-4.2h-7.4v3.5l1.6.7Z"/>
        <path class="st2" d="M245.3,27.4c2.6,7.6,7.3,13.7,14.6,16.7-1.2,1-2.7,3-3.4,4.4-7-3.3-11.6-9-14.6-16.5-2.1,6.5-6.3,12.6-14.6,16.5-.7-1.3-2.1-3-3.5-3.9,8.9-4,12.6-10.4,14.1-17.1h-13.4v-4.8h14.2c.4-3.7.4-7.2.4-10.4h5.1c0,3.2,0,6.8-.5,10.4h15.3v4.8h-13.7Z"/>
        <path class="st2" d="M288.9,42.9c3.7,1,7.6,2.3,10.1,3.2l-4.8,2.5c-2.3-1-6.4-2.5-10.5-3.7l3-2h-11.1l4,1.5c-3,2-7.9,3.5-11.9,4.4-.8-1-2.5-2.7-3.4-3.5,3.9-.5,8.2-1.3,10.6-2.5h-5.6v-14h25.4v14h-5.7ZM269.6,23.6h-4.3v-7.4h5.4c-.5-.9-1.2-1.9-1.9-2.8l4.1-1.1c1,1.1,2.1,2.7,2.6,3.7l-.5.2h4.2v-4h4.6v4h4.3c.9-1.2,1.9-2.8,2.5-4l4.7,1.1c-.8,1.1-1.6,2.1-2.3,2.9h5.4v7.4h-4.5v-4.2h-24.3v4.2ZM271.5,27.6v-6.8h20.7v6.8h-20.7ZM273.6,32.8h16.4v-1.4h-16.4v1.4ZM273.6,36.6h16.4v-1.4h-16.4v1.4ZM273.6,40.4h16.4v-1.4h-16.4v1.4ZM275.8,25h11.8v-1.6h-11.8v1.6Z"/>
        <path class="st2" d="M364.5,32.9c-1.5.4-3,.8-4.5,1.2v9.2c0,2.3-.4,3.4-1.7,4-1.3.7-3.2.9-5.9.9-.1-1.2-.7-3-1.3-4.2,1.5,0,3.2,0,3.7,0s.7-.2.7-.7v-8l-4.6,1.2-.9-4.5c1.6-.3,3.4-.7,5.4-1.2v-6.9h-4.7v-4.3h4.7v-7.4h4.5v7.4h4.1v4.3h-4.1v5.8l4-1,.5,4.2ZM383,44.2c.2,0,.4,0,.5-.2.1-.2.2-.5.2-1.3,0-.7,0-2.4.1-4.6.8.7,2.2,1.5,3.3,1.8,0,2.1-.2,4.5-.4,5.5-.3,1-.7,1.6-1.3,2.1-.6.5-1.6.6-2.4.6h-2.1c-.9,0-2-.3-2.7-1-.7-.8-1-1.6-1-4.6v-12.4h-5.3v2.8c0,5.1-1.3,11.9-7.6,15.8-.6-1-2.3-2.8-3.1-3.5,5.6-3.4,6.1-8.3,6.1-12.3v-7h14.5v16.5c0,.9,0,1.3.1,1.5.1.2.2.2.4.2h.5ZM387,22.9h-22.2v-4.4h8.1c-.4-1.6-1.3-3.9-2.1-5.5l4.5-1.2c.9,1.8,1.8,4.1,2.3,5.6l-3.6,1.1h12.9v4.4Z"/>
        <path class="st2" d="M404.7,43.6c0,2-.4,3.3-1.6,4-1.2.7-2.9.8-5.5.8,0-1.1-.6-3.1-1.2-4.3,1.5,0,3,0,3.5,0s.7-.2.7-.7v-9.6c-1.1,1.1-2.1,2.1-3.2,3.1l-1.4-2.5c-.4,4.8-1.2,10-3,13.8-.7-.7-2.3-2-3.1-2.4,2.4-5.3,2.6-12.9,2.6-18.5v-13.8h12.1v30ZM396.4,27.3c0,1.7,0,3.5-.2,5.5,1.3-.8,2.8-1.9,4.4-3.2v-2.7l-1.6,1.4c-.5-.9-1.6-2.1-2.6-3.3v2.3ZM396.4,17.8v4.6l1.4-1c.9.9,2,2,2.9,3v-6.7h-4.3ZM412.9,28.4c-5,0-6.5-1.6-6.5-6v-9.7h4.6v3.7h14v4h-14v2.1c0,1.4.3,2,1.9,2h8c1.5,0,3.7-.1,4.7-.4.2,1.2.3,2.9.5,3.9-.9.3-3,.4-4.9.4h-8.2ZM407,30.5h17.9v17.9h-4.6v-1.3h-8.9v1.5h-4.4v-18ZM411.4,34.3v2.5h8.9v-2.5h-8.9ZM420.3,43.2v-2.8h-8.9v2.8h8.9Z"/>
        <path class="st2" d="M455.3,23c0,1.5,0,2.9-.2,4.3h9.7s0,1.3,0,1.9c-.4,11.4-.8,15.8-2,17.2-.9,1.2-1.8,1.6-3.2,1.8-1.2.2-3.1.2-5.1.1,0-1.3-.6-3.2-1.4-4.4,1.8.2,3.5.2,4.2.2s1-.1,1.4-.5c.7-.8,1.1-4,1.4-11.9h-5.4c-.8,7-2.7,13-7.7,17.1-.6-1-1.6-2.3-2.6-3.2-.2,1-.7,1.7-1.4,2.2-1.2.7-2.9.9-5.4.9-.1-1.2-.7-3.3-1.3-4.5,1.4,0,2.8,0,3.3,0s.7-.2.7-.7v-9.2c-.9.9-1.8,1.9-2.7,2.7l-1.1-2c-.3,4.8-1.1,9.9-2.8,13.7-.8-.7-2.7-1.8-3.7-2.1,2.5-5.3,2.6-13.1,2.6-18.8v-14.1h12.1v30.5c5.2-4.9,5.6-12.4,5.8-21.1h-5.1v-4.4h8.6c-.4-1.6-1.1-3.8-1.7-5.5l4.4-1.2c.7,1.8,1.7,4.2,2.1,5.7l-3.1.9h10.9v4.4h-11.2ZM436.7,27.7c0,1.5,0,3.2,0,4.9,1.1-.8,2.3-1.7,3.7-2.7v-3l-1.4,1.1c-.5-.7-1.4-1.8-2.3-2.8v2.5ZM436.7,17.8v4.5l1.1-.8c.8.8,1.7,1.7,2.5,2.5v-6.2h-3.6Z"/>
        <path class="st2" d="M484.9,43.1c0,2.1-.3,3.4-1.5,4.2-1.2.7-2.9.9-5.4.9-.2-1.2-.7-3.3-1.3-4.5,1.4,0,2.8,0,3.3,0s.6-.2.6-.7v-9.1c-1,1-2,2-3,2.9l-1.4-2.5c-.3,5-1.1,10.3-2.8,14.1-.8-.7-2.7-1.8-3.7-2.1,2.4-5.3,2.6-13.1,2.6-18.8v-14.1h12.5v29.6ZM476.6,27.7c0,1.6,0,3.3-.1,5.1,1.2-.8,2.7-1.9,4.2-3v-2.8l-1.4,1.2c-.6-.9-1.7-2.1-2.8-3.3v2.8ZM476.6,17.8v4.6l1.3-1c.9.8,1.9,1.9,2.8,2.8v-6.3h-4.1ZM506.4,32.2h-7.9v16.3h-4.9v-16.3h-7.7v-4.7h7.7v-8.6h-6.8v-4.7h18.6v4.7h-6.8v8.6h7.9v4.7Z"/>
        <path class="st2" d="M530.6,27.7v4h12.4v4.2h-6.1l3.9,1.4c-1.4,2.2-2.9,4.5-4.1,6.2h8.4v4.2h-33.7v-4.2h7.7c-.6-1.8-1.9-4.4-3.2-6.3l3.1-1.3h-5.6v-4.2h12.4v-4h-7.9v-1.9c-1.6.8-3.3,1.5-5,2.1-.6-1.4-1.9-3.1-3.1-4.3,7.3-2.1,14.3-6,18-11.8l4.4,2c-.4.5-.7,1-1.1,1.6,3.8,3.4,10.1,6.7,16,8.3-1.1,1-2.5,2.8-3.2,4-1.8-.6-3.5-1.4-5.3-2.3v2.3h-7.8ZM519.7,35.9c1.4,1.9,2.8,4.5,3.4,6.2l-3.2,1.4h5.7v-7.6h-5.9ZM535,23.4c-2.5-1.5-4.7-3.2-6.7-5.1-1.9,1.9-4,3.6-6.3,5.1h13ZM530.6,35.9v7.6h4.9l-2.6-1.1c1.2-1.8,2.6-4.5,3.4-6.5h-5.7Z"/>
        <path class="st2" d="M560.3,30.8c-.5,3.3-1.4,6.7-2.8,9.5.7.4,1.5,1.1,2.7,1.8,2.7,1.6,6.3,1.8,10.9,1.8s11.4-.4,15.7-1c-.5,1.2-1.2,3.5-1.3,4.7-3.2.2-10.1.5-14.6.5s-8.4-.4-11.2-2.1c-1.6-.9-3-2.2-3.8-2.2s-2.3,2.6-3.2,4.9l-3.1-4.4c.9-1.1,1.9-2.1,2.8-2.8,1.5-2.1,2.6-4.9,3.3-7.6h-4.7c.9-2.3,1.8-5.4,2.7-8.4h-3.4v-4.1h9c-.8,2.7-1.7,5.8-2.6,8.6h1.1c0-.1,2.6,1,2.6,1ZM554.4,20.2c-.5-1.8-1.5-4.6-2.2-6.8l4.2-1.1c.7,2.1,1.8,4.8,2.3,6.5l-4.3,1.4ZM572.1,21.8c-.4.9-.7,2.4-.7,3.2-7.7,1.2-9,1.5-9.8,1.9-.2-.9-.9-2.6-1.5-3.4.6-.3,1.3-1,1.3-2.5v-7.4h11v7.4h-7.4v1.9l7.2-1ZM585.6,37.5h-7.4c2.3,1.2,4.8,2.6,6.3,3.7l-4.1,1.9c-1.4-1.2-3.9-2.9-6.3-4l2.3-1.5h-7.6l3,1.1c-1.9,1.8-5.1,3.6-7.7,4.7-.8-.8-2.5-2.2-3.5-2.8,2.4-.7,4.9-1.8,6.6-3h-6.9v-3.4h6.1v-2.4h-4.7v-3.4h4.7v-2.1h4.2v2.1h4.4v-2.1h4.3v2.1h4.8v3.4h-4.8v2.4h6.3v3.4ZM564.9,16.3v1.8h3.5v-1.8h-3.5ZM570.6,34.1h4.4v-2.4h-4.4v2.4ZM578,25.7c-3.5,0-4.4-1.3-4.4-4.7v-7.5h11.1v7.4h-7.5v.2c0,1.1.2,1.4,1,1.4h4c.7,0,2,0,2.6-.2,0,1,.2,2.3.3,3.1-.6.2-1.8.3-2.8.3h-4.4ZM577.2,16.4v1.8h3.6v-1.8h-3.6Z"/>
      </g>
      <path class="st2" d="M308.3,29.9c12.6-2.3,14.4-4.2,16.7-16.7,2.3,12.6,4.2,14.4,16.7,16.7-12.6,2.3-14.4,4.2-16.7,16.7-2.3-12.6-4.2-14.4-16.7-16.7Z"/>
      <text class="st4" transform="translate(42.4 644.2)"><tspan class="st8" x="0" y="0" xml:space="preserve">  </tspan><tspan class="st1" x="44.3" y="8.9">逆轉肝包</tspan><tspan class="st0" x="525" y="8.9">油</tspan></text>
      <text class="st5" transform="translate(152.7 756.7)"><tspan class="st15" x="0" y="0">養護全攻</tspan><tspan x="341.3" y="0">略</tspan></text>
      <g>
        <text class="st3" transform="translate(142.5 521.3)"><tspan class="st14" x="0" y="0">健康大賞</tspan><tspan class="st13" x="159.5" y="-3" xml:space="preserve">      </tspan><tspan class="st14" x="206.6" y="0">抗脂肪肝金選</tspan></text>
        <path class="st2" d="M308.3,506c12.6-2.3,14.4-4.2,16.7-16.7,2.3,12.6,4.2,14.4,16.7,16.7-12.6,2.3-14.4,4.2-16.7,16.7-2.3-12.6-4.2-14.4-16.7-16.7Z"/>
      </g>
    </g>
    <g id="_圖層_31" data-name="圖層_3">
      <image width="394" height="400" transform="translate(-1668 -174)" xlink:href="layer-title-6.png"/>
      <image width="581" height="580" transform="translate(-602 1596)" xlink:href="layer-title-7.png"/>
      <g id="_逆轉脂肪肝開心肝臟公仔.psd" data-name="逆轉脂肪肝開心肝臟公仔.psd">
        <g class="st16">
          <image id="_圖層_2_拷貝" data-name="圖層_2_拷貝" width="1299" height="486" transform="translate(-1897.3 2367.9) scale(.7)" xlink:href="layer-title-8.png"/>
          <image id="_圖層_32" data-name="圖層_3" class="st17" width="1299" height="486" transform="translate(-1897.3 2367.9) scale(.7)" xlink:href="layer-title-9.png"/>
          <image id="_圖層_11" data-name="圖層_1" width="1624" height="1827" transform="translate(-2166.2 1484.2) scale(.7)" xlink:href="layer-title-10.png"/>
        </g>
      </g>
      <image width="233" height="230" transform="translate(-646 2011)" xlink:href="layer-title-11.png"/>
      <image width="396" height="388" transform="translate(-835 -287)" xlink:href="layer-title-12.png"/>
    </g>
  </g>
</svg>